<svg width="13" height="13" viewBox="0 0 13 13" fill="none" xmlns="http://www.w3.org/2000/svg">
<path d="M6.90625 6.90625C6.90625 7.01399 6.86345 7.11733 6.78726 7.19351C6.71108 7.2697 6.60774 7.3125 6.5 7.3125C6.39226 7.3125 6.28892 7.2697 6.21274 7.19351C6.13655 7.11733 6.09375 7.01399 6.09375 6.90625C6.09375 6.79851 6.13655 6.69517 6.21274 6.61899C6.28892 6.5428 6.39226 6.5 6.5 6.5C6.60774 6.5 6.71108 6.5428 6.78726 6.61899C6.86345 6.69517 6.90625 6.79851 6.90625 6.90625ZM4.0625 8.53125C4.17024 8.53125 4.27358 8.48845 4.34976 8.41226C4.42595 8.33608 4.46875 8.23274 4.46875 8.125C4.46875 8.01726 4.42595 7.91392 4.34976 7.83774C4.27358 7.76155 4.17024 7.71875 4.0625 7.71875C3.95476 7.71875 3.85142 7.76155 3.77524 7.83774C3.69905 7.91392 3.65625 8.01726 3.65625 8.125C3.65625 8.23274 3.69905 8.33608 3.77524 8.41226C3.85142 8.48845 3.95476 8.53125 4.0625 8.53125ZM4.46875 9.34375C4.46875 9.45149 4.42595 9.55483 4.34976 9.63101C4.27358 9.7072 4.17024 9.75 4.0625 9.75C3.95476 9.75 3.85142 9.7072 3.77524 9.63101C3.69905 9.55483 3.65625 9.45149 3.65625 9.34375C3.65625 9.23601 3.69905 9.13267 3.77524 9.05649C3.85142 8.9803 3.95476 8.9375 4.0625 8.9375C4.17024 8.9375 4.27358 8.9803 4.34976 9.05649C4.42595 9.13267 4.46875 9.23601 4.46875 9.34375ZM5.28125 8.53125C5.38899 8.53125 5.49233 8.48845 5.56851 8.41226C5.6447 8.33608 5.6875 8.23274 5.6875 8.125C5.6875 8.01726 5.6447 7.91392 5.56851 7.83774C5.49233 7.76155 5.38899 7.71875 5.28125 7.71875C5.17351 7.71875 5.07017 7.76155 4.99399 7.83774C4.9178 7.91392 4.875 8.01726 4.875 8.125C4.875 8.23274 4.9178 8.33608 4.99399 8.41226C5.07017 8.48845 5.17351 8.53125 5.28125 8.53125ZM5.6875 9.34375C5.6875 9.45149 5.6447 9.55483 5.56851 9.63101C5.49233 9.7072 5.38899 9.75 5.28125 9.75C5.17351 9.75 5.07017 9.7072 4.99399 9.63101C4.9178 9.55483 4.875 9.45149 4.875 9.34375C4.875 9.23601 4.9178 9.13267 4.99399 9.05649C5.07017 8.9803 5.17351 8.9375 5.28125 8.9375C5.38899 8.9375 5.49233 8.9803 5.56851 9.05649C5.6447 9.13267 5.6875 9.23601 5.6875 9.34375ZM6.5 8.53125C6.60774 8.53125 6.71108 8.48845 6.78726 8.41226C6.86345 8.33608 6.90625 8.23274 6.90625 8.125C6.90625 8.01726 6.86345 7.91392 6.78726 7.83774C6.71108 7.76155 6.60774 7.71875 6.5 7.71875C6.39226 7.71875 6.28892 7.76155 6.21274 7.83774C6.13655 7.91392 6.09375 8.01726 6.09375 8.125C6.09375 8.23274 6.13655 8.33608 6.21274 8.41226C6.28892 8.48845 6.39226 8.53125 6.5 8.53125ZM6.90625 9.34375C6.90625 9.45149 6.86345 9.55483 6.78726 9.63101C6.71108 9.7072 6.60774 9.75 6.5 9.75C6.39226 9.75 6.28892 9.7072 6.21274 9.63101C6.13655 9.55483 6.09375 9.45149 6.09375 9.34375C6.09375 9.23601 6.13655 9.13267 6.21274 9.05649C6.28892 8.9803 6.39226 8.9375 6.5 8.9375C6.60774 8.9375 6.71108 8.9803 6.78726 9.05649C6.86345 9.13267 6.90625 9.23601 6.90625 9.34375ZM7.71875 8.53125C7.82649 8.53125 7.92983 8.48845 8.00601 8.41226C8.0822 8.33608 8.125 8.23274 8.125 8.125C8.125 8.01726 8.0822 7.91392 8.00601 7.83774C7.92983 7.76155 7.82649 7.71875 7.71875 7.71875C7.61101 7.71875 7.50767 7.76155 7.43149 7.83774C7.3553 7.91392 7.3125 8.01726 7.3125 8.125C7.3125 8.23274 7.3553 8.33608 7.43149 8.41226C7.50767 8.48845 7.61101 8.53125 7.71875 8.53125ZM8.125 9.34375C8.125 9.45149 8.0822 9.55483 8.00601 9.63101C7.92983 9.7072 7.82649 9.75 7.71875 9.75C7.61101 9.75 7.50767 9.7072 7.43149 9.63101C7.3553 9.55483 7.3125 9.45149 7.3125 9.34375C7.3125 9.23601 7.3553 9.13267 7.43149 9.05649C7.50767 8.9803 7.61101 8.9375 7.71875 8.9375C7.82649 8.9375 7.92983 8.9803 8.00601 9.05649C8.0822 9.13267 8.125 9.23601 8.125 9.34375ZM8.9375 8.53125C9.04524 8.53125 9.14858 8.48845 9.22476 8.41226C9.30095 8.33608 9.34375 8.23274 9.34375 8.125C9.34375 8.01726 9.30095 7.91392 9.22476 7.83774C9.14858 7.76155 9.04524 7.71875 8.9375 7.71875C8.82976 7.71875 8.72642 7.76155 8.65024 7.83774C8.57405 7.91392 8.53125 8.01726 8.53125 8.125C8.53125 8.23274 8.57405 8.33608 8.65024 8.41226C8.72642 8.48845 8.82976 8.53125 8.9375 8.53125ZM8.125 6.90625C8.125 7.01399 8.0822 7.11733 8.00601 7.19351C7.92983 7.2697 7.82649 7.3125 7.71875 7.3125C7.61101 7.3125 7.50767 7.2697 7.43149 7.19351C7.3553 7.11733 7.3125 7.01399 7.3125 6.90625C7.3125 6.79851 7.3553 6.69517 7.43149 6.61899C7.50767 6.5428 7.61101 6.5 7.71875 6.5C7.82649 6.5 7.92983 6.5428 8.00601 6.61899C8.0822 6.69517 8.125 6.79851 8.125 6.90625ZM8.9375 7.3125C9.04524 7.3125 9.14858 7.2697 9.22476 7.19351C9.30095 7.11733 9.34375 7.01399 9.34375 6.90625C9.34375 6.79851 9.30095 6.69517 9.22476 6.61899C9.14858 6.5428 9.04524 6.5 8.9375 6.5C8.82976 6.5 8.72642 6.5428 8.65024 6.61899C8.57405 6.69517 8.53125 6.79851 8.53125 6.90625C8.53125 7.01399 8.57405 7.11733 8.65024 7.19351C8.72642 7.2697 8.82976 7.3125 8.9375 7.3125Z" fill="white"/>
<path fill-rule="evenodd" clip-rule="evenodd" d="M3.65625 1.21875C3.76399 1.21875 3.86733 1.26155 3.94351 1.33774C4.0197 1.41392 4.0625 1.51726 4.0625 1.625V2.4375H8.9375V1.625C8.9375 1.51726 8.9803 1.41392 9.05649 1.33774C9.13267 1.26155 9.23601 1.21875 9.34375 1.21875C9.45149 1.21875 9.55483 1.26155 9.63101 1.33774C9.7072 1.41392 9.75 1.51726 9.75 1.625V2.4375H10.1562C10.5872 2.4375 11.0006 2.6087 11.3053 2.91345C11.61 3.2182 11.7812 3.63152 11.7812 4.0625V10.1562C11.7812 10.5872 11.61 11.0006 11.3053 11.3053C11.0006 11.61 10.5872 11.7812 10.1562 11.7812H2.84375C2.41277 11.7812 1.99945 11.61 1.6947 11.3053C1.38995 11.0006 1.21875 10.5872 1.21875 10.1562V4.0625C1.21875 3.63152 1.38995 3.2182 1.6947 2.91345C1.99945 2.6087 2.41277 2.4375 2.84375 2.4375H3.25V1.625C3.25 1.51726 3.2928 1.41392 3.36899 1.33774C3.44517 1.26155 3.54851 1.21875 3.65625 1.21875ZM10.9688 6.09375C10.9688 5.87826 10.8831 5.6716 10.7308 5.51923C10.5784 5.36685 10.3717 5.28125 10.1562 5.28125H2.84375C2.62826 5.28125 2.4216 5.36685 2.26923 5.51923C2.11685 5.6716 2.03125 5.87826 2.03125 6.09375V10.1562C2.03125 10.3717 2.11685 10.5784 2.26923 10.7308C2.4216 10.8831 2.62826 10.9688 2.84375 10.9688H10.1562C10.3717 10.9688 10.5784 10.8831 10.7308 10.7308C10.8831 10.5784 10.9688 10.3717 10.9688 10.1562V6.09375Z" fill="white"/>
</svg>
