<svg width="14" height="13" viewBox="0 0 14 13" fill="none" xmlns="http://www.w3.org/2000/svg">
<path d="M9.625 5.6875V3.65625C9.625 3.00978 9.34844 2.3898 8.85615 1.93268C8.36387 1.47556 7.69619 1.21875 7 1.21875C6.30381 1.21875 5.63613 1.47556 5.14384 1.93268C4.65156 2.3898 4.375 3.00978 4.375 3.65625V5.6875M3.9375 11.7813H10.0625C10.4106 11.7813 10.7444 11.6528 10.9906 11.4243C11.2367 11.1957 11.375 10.8857 11.375 10.5625V6.90625C11.375 6.58302 11.2367 6.27302 10.9906 6.04446C10.7444 5.8159 10.4106 5.6875 10.0625 5.6875H3.9375C3.5894 5.6875 3.25556 5.8159 3.00942 6.04446C2.76328 6.27302 2.625 6.58302 2.625 6.90625V10.5625C2.625 10.8857 2.76328 11.1957 3.00942 11.4243C3.25556 11.6528 3.5894 11.7813 3.9375 11.7813Z" stroke="white" stroke-width="1.5" stroke-linecap="round" stroke-linejoin="round"/>
</svg>
