<svg width="14" height="13" viewBox="0 0 14 13" fill="none" xmlns="http://www.w3.org/2000/svg">
<path d="M12.6764 1.229C12.3893 0.962394 11.9998 0.812622 11.5938 0.812622C11.1877 0.812622 10.7982 0.962394 10.5111 1.229L9.83617 1.8557L12.0015 3.86637L12.6764 3.23966C12.9635 2.97302 13.1248 2.61139 13.1248 2.23433C13.1248 1.85727 12.9635 1.49564 12.6764 1.229ZM11.3826 4.44108L9.21725 2.43041L4.31725 6.98041C3.95725 7.31453 3.69261 7.72671 3.54725 8.17966L3.08059 9.63404C3.05806 9.70422 3.05638 9.77875 3.07572 9.84975C3.09507 9.92075 3.13473 9.98557 3.1905 10.0374C3.24626 10.0891 3.31607 10.126 3.39253 10.1439C3.46899 10.1619 3.54926 10.1603 3.62484 10.1394L5.19109 9.70608C5.67889 9.57111 6.12276 9.32537 6.48259 8.99108L11.3826 4.44108Z" fill="white"/>
<path d="M3.0625 2.84375C2.59837 2.84375 2.15325 3.01495 1.82506 3.3197C1.49687 3.62445 1.3125 4.03777 1.3125 4.46875V10.1563C1.3125 10.5872 1.49687 11.0006 1.82506 11.3053C2.15325 11.61 2.59837 11.7812 3.0625 11.7812H9.1875C9.65163 11.7812 10.0967 11.61 10.4249 11.3053C10.7531 11.0006 10.9375 10.5872 10.9375 10.1563V7.3125C10.9375 7.20476 10.8914 7.10142 10.8094 7.02524C10.7273 6.94905 10.616 6.90625 10.5 6.90625C10.384 6.90625 10.2727 6.94905 10.1906 7.02524C10.1086 7.10142 10.0625 7.20476 10.0625 7.3125V10.1563C10.0625 10.3717 9.97031 10.5784 9.80622 10.7308C9.64212 10.8831 9.41956 10.9688 9.1875 10.9688H3.0625C2.83044 10.9688 2.60788 10.8831 2.44378 10.7308C2.27969 10.5784 2.1875 10.3717 2.1875 10.1563V4.46875C2.1875 4.25326 2.27969 4.0466 2.44378 3.89423C2.60788 3.74185 2.83044 3.65625 3.0625 3.65625H6.125C6.24103 3.65625 6.35231 3.61345 6.43436 3.53726C6.51641 3.46108 6.5625 3.35774 6.5625 3.25C6.5625 3.14226 6.51641 3.03892 6.43436 2.96274C6.35231 2.88655 6.24103 2.84375 6.125 2.84375H3.0625Z" fill="white"/>
</svg>
