<svg width="13" height="13" viewBox="0 0 13 13" fill="none" xmlns="http://www.w3.org/2000/svg">
<path d="M6.21292 2.08048C6.28909 2.0044 6.39234 1.96167 6.5 1.96167C6.60766 1.96167 6.71091 2.0044 6.78708 2.08048L11.4942 6.78756C11.5317 6.82635 11.5765 6.85728 11.6261 6.87854C11.6757 6.89981 11.729 6.91099 11.7829 6.91143C11.8368 6.91188 11.8903 6.90157 11.9403 6.88112C11.9902 6.86067 12.0355 6.83049 12.0736 6.79233C12.1118 6.75416 12.1419 6.70879 12.1623 6.65885C12.1827 6.60892 12.193 6.55542 12.1925 6.50148C12.192 6.44754 12.1807 6.39423 12.1594 6.34468C12.1381 6.29513 12.1072 6.25031 12.0683 6.21286L7.36179 1.50577C7.24862 1.3926 7.11427 1.30283 6.9664 1.24158C6.81853 1.18033 6.66005 1.1488 6.5 1.1488C6.33995 1.1488 6.18147 1.18033 6.0336 1.24158C5.88574 1.30283 5.75138 1.3926 5.63821 1.50577L0.931125 6.21286C0.892342 6.25035 0.861415 6.29519 0.840147 6.34477C0.81888 6.39434 0.807698 6.44765 0.807255 6.50159C0.806812 6.55554 0.817116 6.60903 0.837566 6.65894C0.858016 6.70886 0.888203 6.7542 0.926365 6.79233C0.964527 6.83046 1.0099 6.8606 1.05984 6.881C1.10977 6.90141 1.16327 6.91166 1.21721 6.91117C1.27115 6.91067 1.32446 6.89944 1.37401 6.87813C1.42356 6.85681 1.46838 6.82584 1.50583 6.78702L6.21292 2.08048Z" fill="white"/>
<path d="M6.5 2.94238L10.9195 7.36184C10.9357 7.37809 10.952 7.39326 10.9688 7.40842V10.7657C10.9688 11.3263 10.5138 11.7813 9.95313 11.7813H8.125C8.01726 11.7813 7.91393 11.7385 7.83774 11.6623C7.76155 11.5861 7.71875 11.4828 7.71875 11.375V8.93755C7.71875 8.8298 7.67595 8.72647 7.59976 8.65029C7.52358 8.5741 7.42024 8.5313 7.3125 8.5313H5.6875C5.57976 8.5313 5.47642 8.5741 5.40024 8.65029C5.32405 8.72647 5.28125 8.8298 5.28125 8.93755V11.375C5.28125 11.4828 5.23845 11.5861 5.16226 11.6623C5.08608 11.7385 4.98274 11.7813 4.875 11.7813H3.04688C2.77751 11.7813 2.51919 11.6743 2.32872 11.4838C2.13825 11.2934 2.03125 11.035 2.03125 10.7657V7.40842C2.0481 7.39335 2.06454 7.37781 2.08054 7.36184L6.5 2.94238Z" fill="white"/>
</svg>
