<svg width="13" height="13" viewBox="0 0 13 13" fill="none" xmlns="http://www.w3.org/2000/svg">
<g clip-path="url(#clip0_39_14)">
<path d="M1.21875 6.91167C1.21875 7.77834 1.82704 8.53342 2.68504 8.65963C3.27383 8.74629 3.86858 8.81292 4.46875 8.8595V11.375L6.67658 9.16717C6.82631 9.0184 7.02729 8.93255 7.23829 8.92721C8.26822 8.8987 9.29557 8.80935 10.315 8.65963C11.173 8.53342 11.7813 7.77888 11.7813 6.91113V3.65138C11.7813 2.78363 11.173 2.02908 10.315 1.90288C9.05177 1.71747 7.77672 1.6246 6.5 1.625C5.20433 1.625 3.93033 1.71979 2.68504 1.90288C1.82704 2.02908 1.21875 2.78417 1.21875 3.65138V6.91113V6.91167Z" stroke="white" stroke-width="1.5" stroke-linecap="round" stroke-linejoin="round"/>
</g>
<defs>
<clipPath id="clip0_39_14">
<rect width="13" height="13" fill="white"/>
</clipPath>
</defs>
</svg>
